<?xml version="1.0" standalone="no"?>
<!DOCTYPE svg PUBLIC "-//W3C//DTD SVG 20010904//EN"
 "http://www.w3.org/TR/2001/REC-SVG-20010904/DTD/svg10.dtd">
<svg version="1.0" xmlns="http://www.w3.org/2000/svg"
 width="300.000000pt" height="296.000000pt" viewBox="0 0 300.000000 296.000000"
 preserveAspectRatio="xMidYMid meet">
<metadata>
Created by potrace 1.10, written by Peter Selinger 2001-2011
</metadata>
<g transform="translate(0.000000,296.000000) scale(0.100000,-0.100000)"
fill="#000000" stroke="none">
<path d="M1338 2883 c-10 -2 -18 -9 -18 -14 0 -6 5 -7 10 -4 16 10 21 -17 18
-91 l-3 -69 -48 63 c-38 49 -46 66 -38 76 10 12 6 12 -23 2 -41 -14 -56 -26
-34 -26 32 0 49 -35 46 -95 l-3 -57 -49 67 c-39 53 -46 69 -35 76 12 7 12 9
-1 8 -21 0 -78 -27 -60 -28 9 -1 47 -42 85 -92 l70 -90 5 78 5 78 40 -57 c22
-32 43 -57 48 -58 4 0 7 49 7 108 0 71 4 112 12 120 13 13 2 15 -34 5z"/>
<path d="M1510 2863 c26 -10 30 -25 30 -112 0 -68 -3 -86 -17 -97 -16 -11 -12
-12 27 -9 25 2 63 4 86 4 34 1 43 5 52 26 18 38 15 41 -13 11 -18 -20 -34 -26
-65 -26 l-40 0 0 48 c0 47 1 49 30 50 20 0 35 -7 45 -21 14 -20 15 -19 15 23
-1 36 -3 41 -11 28 -6 -12 -22 -18 -44 -18 -34 0 -35 1 -35 40 l0 40 41 0 c28
0 46 -6 56 -17 12 -17 13 -16 11 7 -3 24 -5 25 -93 27 -49 1 -83 -1 -75 -4z"/>
<path d="M1860 2822 c0 -2 6 -10 14 -16 22 -18 -18 -174 -47 -186 -25 -9 -20
-12 55 -29 73 -17 105 -14 122 11 21 30 20 45 -4 65 -19 16 -19 17 3 28 29 14
34 56 8 79 -19 17 -151 59 -151 48z m123 -50 c40 -35 9 -78 -48 -68 -39 8 -39
7 -25 58 9 30 14 35 33 31 12 -3 30 -13 40 -21z m-20 -100 c36 -31 14 -72 -39
-72 -41 0 -46 8 -38 59 6 38 8 40 33 35 14 -4 34 -14 44 -22z"/>
<path d="M628 2544 c-75 -65 -76 -67 -53 -60 16 5 35 -8 84 -58 53 -54 62 -67
56 -87 -5 -18 6 -11 49 31 62 60 77 100 56 151 -18 43 -56 69 -101 69 -31 0
-48 -8 -91 -46z m143 -13 c38 -38 39 -88 4 -128 l-25 -28 -64 70 -64 70 21 23
c31 34 90 30 128 -7z"/>
<path d="M2430 2525 c14 -17 15 -15 -63 -107 -34 -40 -53 -55 -65 -51 -23 7
55 -63 92 -83 58 -32 133 3 156 71 15 45 0 78 -63 136 -49 46 -84 67 -57 34z
m67 -67 c30 -34 34 -55 19 -92 -17 -42 -51 -66 -91 -66 -31 0 -75 24 -75 40 0
12 109 140 119 140 4 0 17 -10 28 -22z"/>
<path d="M421 2355 c-19 -33 -17 -47 5 -26 5 6 33 -5 72 -29 l63 -38 -88 -11
c-105 -14 -128 -23 -144 -53 -9 -19 -9 -21 2 -10 21 19 39 14 114 -32 52 -32
69 -48 67 -62 -2 -18 -2 -18 13 1 9 11 21 28 26 38 9 16 8 16 -8 7 -15 -10
-30 -5 -86 28 l-67 39 97 13 c146 19 145 18 43 80 -70 43 -89 59 -84 72 9 29
-2 21 -25 -17z"/>
<path d="M2664 2274 c5 -18 -6 -30 -71 -78 -51 -36 -81 -52 -87 -46 -6 6 -14
10 -18 10 -4 0 15 -31 43 -70 52 -71 59 -75 94 -60 18 8 17 9 -7 9 -24 1 -78
49 -78 71 0 4 15 19 34 34 l35 26 21 -30 c18 -25 19 -34 10 -45 -20 -24 2 -17
35 11 25 21 26 25 8 19 -16 -4 -26 1 -42 24 l-21 29 35 26 34 26 25 -36 c19
-28 23 -42 15 -56 -12 -22 3 -24 21 -3 13 16 13 18 -48 100 -25 33 -42 50 -38
39z"/>
<path d="M205 1953 c-20 -76 -24 -91 -18 -80 7 12 33 8 118 -17 59 -17 80 -28
79 -40 -1 -9 2 -16 7 -16 5 0 9 8 9 18 0 10 9 46 21 80 l21 62 -24 19 c-29 24
-34 20 -14 -11 13 -20 13 -30 4 -62 -12 -37 -12 -38 -52 -31 -23 3 -44 9 -47
13 -11 12 20 72 39 73 9 0 1 7 -18 14 -46 18 -60 18 -37 1 14 -11 16 -21 10
-45 -9 -35 -9 -35 -58 -25 -32 6 -34 9 -29 33 10 40 23 61 39 61 8 0 15 5 15
10 0 6 -11 10 -24 10 -20 0 -25 -8 -41 -67z"/>
<path d="M2831 1960 c-1 -9 -37 -51 -81 -95 -44 -44 -80 -83 -80 -87 0 -5 51
-8 113 -8 77 0 117 -4 126 -12 11 -11 12 -8 6 12 -4 14 -11 32 -16 40 -7 13
-8 12 -9 -2 0 -16 -11 -18 -84 -18 l-85 0 60 56 c49 48 61 55 74 44 19 -16 18
-5 -5 45 -10 22 -19 33 -19 25z"/>
<path d="M2908 1624 c-5 -18 -18 -23 -94 -33 -80 -10 -90 -9 -101 6 -16 20
-16 23 -2 -74 11 -79 19 -93 53 -93 16 0 15 3 -7 20 -16 13 -26 33 -29 55 -5
42 -6 41 50 50 l42 7 0 -40 c0 -23 -5 -43 -12 -45 -7 -3 4 -6 25 -6 20 -1 37
4 37 9 0 6 -6 10 -14 10 -18 0 -30 61 -14 72 7 4 28 8 46 8 31 0 32 -1 32 -45
0 -31 -5 -47 -17 -55 -16 -9 -15 -10 7 -8 24 3 25 6 23 63 -2 33 -7 73 -11 90
-7 26 -9 27 -14 9z"/>
<path d="M259 1570 c-1 -16 -2 -35 -3 -42 -1 -6 5 -13 12 -15 8 -3 12 9 12 41
0 50 -19 64 -21 16z"/>
<path d="M132 1353 c-16 -3 -21 -10 -18 -21 3 -9 10 -39 16 -67 20 -97 19 -95
45 -95 14 0 25 5 25 11 0 5 -4 8 -8 5 -14 -8 -31 9 -34 34 -3 23 2 25 86 44
87 19 89 19 102 1 17 -23 17 -17 2 43 -9 36 -13 42 -18 26 -5 -14 -28 -24 -99
-40 l-91 -21 0 30 c0 17 8 36 18 43 17 14 14 15 -26 7z"/>
<path d="M2698 1285 c-4 -11 -10 -50 -13 -87 -7 -60 -5 -67 13 -77 31 -17 49
-13 24 5 -17 12 -22 25 -22 59 0 24 3 46 8 49 4 2 48 -1 97 -8 82 -10 90 -14
96 -36 l7 -25 1 26 c1 15 4 42 7 60 4 29 4 31 -6 15 -11 -16 -20 -17 -74 -12
-102 11 -125 17 -129 35 -3 13 -4 13 -9 -4z"/>
<path d="M295 1040 c-57 -31 -94 -45 -99 -39 -22 21 -24 7 -5 -26 23 -39 29
-44 23 -17 -3 12 11 26 57 50 33 19 62 32 64 30 1 -1 -15 -43 -37 -93 -37 -86
-38 -91 -24 -120 l15 -30 0 27 c1 24 11 33 83 69 50 25 84 37 86 30 2 -6 8
-11 13 -11 5 0 1 16 -9 35 -18 37 -33 47 -26 18 3 -14 -13 -27 -67 -56 -39
-20 -69 -32 -66 -25 3 7 24 55 47 107 22 51 39 95 38 97 -2 1 -44 -19 -93 -46z"/>
<path d="M2614 966 c-24 -24 -34 -43 -34 -66 0 -105 133 -158 203 -80 64 72 2
180 -103 180 -23 0 -42 -10 -66 -34z m103 -11 c54 -23 73 -44 73 -81 0 -25 -7
-38 -26 -51 -23 -14 -32 -15 -73 -4 -85 22 -122 92 -71 133 27 22 50 23 97 3z"/>
<path d="M445 786 c-45 -20 -67 -50 -72 -99 -5 -39 -1 -48 25 -78 26 -29 37
-34 76 -34 36 0 51 6 75 29 63 60 59 146 -8 180 -36 19 -56 20 -96 2z m109
-32 c29 -28 20 -73 -23 -115 -48 -49 -100 -54 -127 -14 -22 34 -11 71 32 112
40 37 91 45 118 17z"/>
<path d="M2465 738 c-16 -24 -21 -37 -12 -30 14 12 22 11 52 -8 40 -25 41 -27
19 -51 -24 -26 -21 -69 6 -91 12 -10 27 -18 34 -18 21 0 55 30 88 78 17 26 24
41 15 33 -15 -12 -25 -9 -80 29 -86 60 -96 70 -90 86 10 27 -4 14 -32 -28z
m157 -136 c-7 -20 -35 -30 -60 -21 -29 11 -37 34 -24 65 l12 24 38 -27 c22
-16 37 -34 34 -41z"/>
<path d="M685 590 c5 -8 12 -41 15 -72 l6 -58 -33 0 c-23 0 -36 -6 -43 -21
-19 -34 -3 -65 50 -103 52 -37 70 -45 52 -23 -17 20 85 170 110 164 28 -8 21
6 -17 31 -40 25 -53 28 -36 8 10 -11 7 -22 -11 -50 -13 -20 -27 -34 -33 -33
-5 2 -12 34 -15 72 -4 58 -9 70 -30 84 -20 13 -23 13 -15 1z m39 -156 c22 -8
20 -24 -7 -57 -24 -31 -52 -29 -62 4 -13 41 25 70 69 53z"/>
<path d="M2242 512 c-57 -51 -63 -60 -57 -84 4 -16 11 -28 16 -28 5 0 6 12 3
26 -5 19 0 32 22 55 15 16 33 29 38 29 6 0 23 -15 38 -34 l28 -35 -30 -21
c-25 -18 -34 -19 -45 -10 -28 23 -15 -6 14 -34 27 -26 29 -26 24 -7 -4 14 2
27 18 41 31 25 31 25 58 -11 l23 -31 -28 -24 c-17 -14 -38 -23 -51 -20 -28 4
-30 -5 -5 -20 15 -10 28 -3 79 40 65 54 75 67 44 59 -13 -3 -35 14 -79 63 -50
55 -59 71 -51 86 5 10 8 18 7 18 -2 0 -32 -26 -66 -58z"/>
<path d="M2008 379 c-37 -19 -52 -34 -24 -23 18 7 101 -150 92 -172 -7 -17
-48 -18 -64 -2 -18 18 -14 56 7 70 17 10 12 15 -48 43 -53 26 -70 30 -88 22
-28 -12 -30 -27 -4 -20 14 4 90 -26 109 -42 2 -2 -4 -15 -13 -29 -16 -24 -16
-28 -1 -51 22 -33 61 -33 126 0 54 27 60 34 33 31 -13 -1 -31 24 -62 83 -41
80 -43 85 -25 98 26 19 5 15 -38 -8z"/>
<path d="M1043 366 c16 -13 17 -19 6 -55 -7 -23 -18 -41 -25 -41 -27 0 -44 13
-44 33 0 29 -17 10 -26 -28 -5 -24 -4 -28 6 -18 9 8 21 8 40 1 28 -9 28 -9 13
-46 -8 -20 -16 -38 -18 -40 -1 -1 -18 5 -38 13 -27 11 -37 21 -37 38 -1 20 -1
20 -11 4 -17 -30 -5 -41 68 -65 79 -25 94 -27 70 -9 -16 11 -16 17 7 82 35
103 36 105 60 105 12 1 1 9 -29 20 -59 23 -67 24 -42 6z"/>
</g>
</svg>
